<?xml version="1.0"?>
<svg version="1.1" xmlns="http://www.w3.org/2000/svg" width="228" height="50" style="2px #aaa"><path fill="#731f6f" d="M24.47718,33.73l0-8.46l-1.71,0l-0.45,1.71l-1.656,0l0-3.87l10.44,0l0,3.87l-1.674,0l-0.45-1.71l-1.71,0l0,8.46l1.71,0.54l0,1.53l-6.21,0l0-1.53z M37.03236,21.85l0,5.274c0.522-0.432,1.692-1.224,3.024-1.224c1.836,0,2.826,1.224,2.826,3.24l0,4.77l1.26,0.45l0,1.44l-4.896,0l0-1.44l0.936-0.432l0-4.356c0-0.9-0.36-1.44-1.188-1.44c-1.008,0-1.962,0.954-1.962,0.954l0,4.824l0.954,0.45l0,1.44l-5.094,0l0-1.44l1.44-0.45l0-10.116l-1.44-0.36l0-1.44z M55.25754,31.534l-5.976,0c0.108,1.44,0.936,2.286,2.178,2.286c1.494,0,3.024-0.846,3.024-0.846l0.774,1.494s-1.8,1.512-4.104,1.512c-3.096,0-4.68-1.8-4.68-4.86c0-3.15,1.782-5.22,4.806-5.22c2.682,0,4.086,1.656,4.086,4.23c0,0.684-0.108,1.35-0.108,1.404z M49.31754,29.86l3.258,0c0-1.026-0.432-1.8-1.476-1.8c-1.008,0-1.638,0.738-1.782,1.8z M64.7979,33.73l0-8.46l-1.35-0.54l0-1.53l4.14-0.09l1.71,0c3.6,0,5.724,2.124,5.724,6.174s-2.34,6.516-5.994,6.516l-5.58,0l0-1.53z M67.5879,33.64l1.494,0c1.746,0,2.916-1.026,2.916-4.266c0-3.024-1.026-4.104-2.79-4.104l-1.62,0l0,8.37z M78.91908,23.11c0-1.026,0.738-1.62,1.548-1.62c0.936,0,1.512,0.486,1.512,1.62c0,1.062-0.774,1.638-1.512,1.638c-0.972,0-1.548-0.576-1.548-1.638z M81.94308,33.91l1.26,0.45l0,1.44l-5.4,0l0-1.44l1.44-0.45l0-5.85l-1.44-0.45l0-1.44l4.14-0.09l0,7.83z M89.13426,34.18l2.664,0c2.286,0,3.6,0.99,3.6,2.79c0,1.98-1.584,3.42-5.04,3.42c-2.826,0-4.644-0.63-4.644-2.61c0-1.548,1.89-2.16,1.89-2.16s-1.08-0.162-1.08-1.188c0-0.522,0.72-1.692,0.936-2.034c-0.432-0.288-1.386-1.062-1.386-2.808c0-2.466,1.854-3.69,4.32-3.69c1.044,0,1.782,0.27,2.124,0.432l3.096-0.072l0,1.44l-1.476,0.252c0.036,0.162,0.306,0.648,0.306,1.422c0,2.61-1.836,3.69-4.32,3.69c-0.486,0-0.846-0.09-0.918-0.09z M90.30426,27.754c-1.08,0-1.53,0.576-1.53,1.71c0,1.08,0.414,1.8,1.44,1.8c1.134,0,1.53-0.594,1.53-1.8c0-1.134-0.45-1.71-1.44-1.71z M91.07826,36.16l-1.89,0s-0.864,0.396-0.864,1.17c0,0.9,0.774,1.08,2.25,1.08c1.62,0,2.304-0.36,2.304-1.224c0-0.81-0.594-1.026-1.8-1.026z M98.97144,23.11c0-1.026,0.738-1.62,1.548-1.62c0.936,0,1.512,0.486,1.512,1.62c0,1.062-0.774,1.638-1.512,1.638c-0.972,0-1.548-0.576-1.548-1.638z M101.99544,33.91l1.26,0.45l0,1.44l-5.4,0l0-1.44l1.44-0.45l0-5.85l-1.44-0.45l0-1.44l4.14-0.09l0,7.83z M112.06662,33.496l0.648,1.368c-0.882,0.648-1.89,1.116-3.06,1.116c-2.07,0-2.664-1.44-2.664-3.51l0-4.14l-1.674,0l0-1.746l1.674-0.234l0-2.484l2.7-0.486l0,2.97l2.52,0l0,1.98l-2.52,0l0,3.96c0,1.152,0.198,1.62,0.954,1.62c0.486,0,1.188-0.288,1.422-0.414z M120.9138,35.8l-0.324-1.17s-1.386,1.35-2.916,1.35c-1.746,0-2.808-1.026-2.808-2.826c0-2.124,1.602-2.97,4.338-2.97l1.26,0l0-0.99c0-0.918-0.486-1.314-1.386-1.314c-0.918,0-1.584,0.27-1.584,0.27l-0.27,1.134l-1.62,0l-0.126-2.664s2.178-0.72,3.906-0.72c2.736,0,3.78,0.954,3.78,3.564l0,4.446l1.35,0.324l0,1.44z M120.4638,31.714l-1.026,0c-1.404,0-1.962,0.36-1.962,1.17c0,0.684,0.378,1.08,1.062,1.08c0.954,0,1.926-1.044,1.926-1.044l0-1.206z M130.73298,33.91l1.62,0.45l0,1.44l-5.778,0l0-1.44l1.44-0.45l0-10.116l-1.44-0.36l0-1.44l4.158-0.144l0,12.06z"/><path fill="#d62b4d" d="M148.56336,32.37l0.44,2.31s0.99,0.55,2.42,0.55c1.606,0,3.366-0.792,3.366-2.354c0-3.388-7.942-1.98-7.942-7.238c0-3.08,2.464-4.378,5.214-4.378c2.09,0,4.642,0.88,4.642,0.88l-0.11,3.74l-1.43,0l-0.748-2.354s-1.122-0.396-2.332-0.396c-1.98,0-2.926,1.034-2.926,2.134c0,3.344,7.92,2.068,7.92,7.018c0,3.3-2.662,4.818-5.742,4.818c-2.31,0-4.532-0.88-4.532-0.88l0-3.85l1.76,0z M164.19656,25.22l0.176,1.232c0.66-0.616,1.826-1.452,3.344-1.452c3.19,0,4.73,2.31,4.73,5.72c0,3.74-1.87,6.38-5.94,6.38c-0.726,0-1.386-0.132-1.98-0.308l0,3.498l2.31,0.44l0,1.21l-6.27,0l0-1.21l1.76-0.44l0-13.31l-1.87-0.44l0-1.21z M164.52656,28.3l0,6.6s0.66,0.44,2.31,0.44c2.552,0,3.3-1.98,3.3-4.4s-0.88-4.18-2.86-4.18s-2.75,1.54-2.75,1.54z M185.72576,31.38l-7.59,0c0,2.42,1.298,3.96,3.19,3.96c2.2,0,3.696-1.21,3.696-1.21l0.77,1.144s-2.046,1.826-4.686,1.826c-3.52,0-5.28-2.31-5.28-5.94c0-3.52,2.2-6.16,5.39-6.16s4.62,1.87,4.62,5.17c0,0.55-0.11,1.166-0.11,1.21z M178.22376,29.73l5.28,0c0-1.65-0.638-3.014-2.398-3.014s-2.75,1.364-2.882,3.014z M197.13496,28.85l-0.33-1.87s-0.88-0.22-1.98-0.22c-2.09,0-3.3,1.32-3.3,4.07c0,2.97,1.32,4.51,3.41,4.51s3.41-1.32,3.41-1.32l0.77,1.32s-1.98,1.76-4.4,1.76c-3.63,0-5.5-2.31-5.5-6.05c0-3.52,2.2-6.05,5.72-6.05c1.98,0,3.74,0.88,3.74,0.88l-0.11,2.97l-1.43,0z M203.61616,33.36l0.242,1.892s0.66,0.198,1.848,0.198c1.32,0,2.486-0.374,2.486-1.738c0-2.376-6.138-1.276-6.138-5.28c0-2.288,1.76-3.432,4.026-3.432c1.738,0,3.762,0.66,3.762,0.66l-0.066,2.97l-1.43,0l-0.352-1.716s-0.682-0.264-1.782-0.264c-1.122,0-1.958,0.352-1.958,1.474c0,2.354,6.138,1.452,6.138,5.214c0,2.53-2.2,3.762-4.84,3.762c-2.024,0-3.476-0.484-3.476-0.484l0-3.256l1.54,0z"/></svg>
